<svg width="154" height="53" viewBox="0 0 154 53" fill="none" xmlns="http://www.w3.org/2000/svg">
<path d="M64.3484 22.627H70.6846C72.5436 22.627 73.9968 22.2081 75.0441 21.3702C76.1045 20.5324 76.6282 19.3934 76.6282 17.9664C76.6282 16.9191 76.3533 16.042 75.8165 15.322C75.2798 14.6019 74.5074 14.1044 73.5255 13.8164C74.3634 13.5153 75.0179 13.0179 75.5023 12.3502C75.9736 11.6825 76.2093 10.9101 76.2093 10.0199C76.2093 8.64529 75.6856 7.57178 74.6514 6.7732C73.6171 5.97462 72.2163 5.58187 70.4359 5.58187H64.3353C63.7723 5.58187 63.3403 5.73897 63.0261 6.04008C62.725 6.34118 62.5679 6.78629 62.5679 7.34923V20.8728C62.5679 21.4357 62.725 21.8677 63.0261 22.1819C63.3403 22.4699 63.7723 22.627 64.3484 22.627ZM69.8206 8.46201C70.7894 8.46201 71.4963 8.6322 71.9545 8.95948C72.4127 9.28677 72.6484 9.81043 72.6484 10.5174C72.6484 11.1981 72.4127 11.6956 71.9545 12.036C71.4832 12.3502 70.7763 12.5204 69.8075 12.5204H66.2466V8.46201H69.8206ZM66.2597 15.4005H70.2526C71.2476 15.4005 71.9807 15.5838 72.4258 15.9373C72.8709 16.2907 73.1066 16.8537 73.1066 17.5999C73.1066 18.3461 72.884 18.909 72.4258 19.2494C71.9676 19.5898 71.2476 19.76 70.2526 19.76H66.2597V15.4005Z" fill="white"/>
<path d="M80.0189 22.0772C80.9353 22.5747 82.0088 22.8234 83.2394 22.8234C83.9856 22.8234 84.6926 22.7318 85.3733 22.5616C86.0541 22.3783 86.6432 22.1295 87.1669 21.8153C87.6643 21.5273 87.9131 21.0822 87.9131 20.48C87.9131 20.0611 87.8083 19.7207 87.612 19.4458C87.4156 19.1709 87.1538 19.0399 86.8527 19.0399C86.6432 19.0399 86.4468 19.0792 86.2766 19.1447C86.1064 19.2101 85.8577 19.328 85.5566 19.472C85.19 19.6683 84.8758 19.7993 84.614 19.8909C84.3522 19.9825 84.0642 20.0218 83.7238 20.0218C82.8205 20.0218 82.1266 19.7338 81.6553 19.1447C81.184 18.5556 80.9484 17.7308 80.9484 16.6311C80.9484 15.5314 81.184 14.7067 81.6553 14.1306C82.1266 13.5546 82.8205 13.2666 83.7238 13.2666C84.0642 13.2666 84.3653 13.319 84.6271 13.4106C84.8889 13.5022 85.19 13.6462 85.5304 13.8164C85.8315 13.9604 86.0803 14.0652 86.2635 14.1437C86.4468 14.2223 86.6432 14.2485 86.8527 14.2485C87.1799 14.2485 87.4287 14.1175 87.6251 13.8557C87.8214 13.5939 87.9131 13.2535 87.9131 12.8215C87.9131 12.2193 87.6643 11.7742 87.1669 11.4731C86.6563 11.1458 86.0672 10.897 85.4126 10.7268C84.758 10.5566 84.1034 10.465 83.462 10.465C82.2183 10.465 81.1186 10.7268 80.176 11.2374C79.2203 11.748 78.4872 12.4811 77.9635 13.4237C77.4399 14.3663 77.178 15.4529 77.178 16.6966C77.178 17.9403 77.4268 19.0138 77.9111 19.9433C78.3955 20.8597 79.0894 21.5797 80.0189 22.0772Z" fill="white"/>
<path d="M88.6724 19.9302C89.1829 20.8597 89.9292 21.5666 90.8848 22.0772C91.8405 22.5747 92.9664 22.8234 94.2624 22.8234C94.8777 22.8234 95.5454 22.7318 96.2654 22.5485C96.9855 22.3652 97.627 22.1295 98.1768 21.8284C98.4648 21.6713 98.6874 21.475 98.8576 21.2393C99.0278 21.0037 99.0932 20.7549 99.0932 20.48C99.0932 20.0742 98.9885 19.7469 98.7921 19.4851C98.5957 19.2232 98.3339 19.0923 98.0066 19.0923C97.8495 19.0923 97.6662 19.1316 97.4568 19.197C97.2473 19.2625 97.0248 19.3541 96.8022 19.4458C96.3571 19.6422 95.9382 19.7862 95.5716 19.904C95.205 20.0218 94.7861 20.0742 94.3148 20.0742C93.4377 20.0742 92.77 19.8647 92.3118 19.4327C91.8536 19.0007 91.5525 18.3199 91.4347 17.3642H98.203C98.5041 17.3642 98.7528 17.2726 98.9099 17.0893C99.0801 16.906 99.1587 16.6311 99.1587 16.2776C99.1587 15.0994 98.9361 14.0783 98.4779 13.188C98.0328 12.3109 97.3913 11.6302 96.5796 11.1589C95.768 10.6876 94.8123 10.4519 93.7388 10.4519C92.6129 10.4519 91.6049 10.7137 90.7146 11.2374C89.8244 11.7611 89.1306 12.4942 88.6331 13.4237C88.1356 14.3532 87.8869 15.4267 87.8869 16.6442C87.9 17.9141 88.1618 19.0007 88.6724 19.9302ZM92.1809 13.6462C92.5998 13.2011 93.1628 12.9786 93.8435 12.9786C94.5243 12.9786 95.0741 13.2011 95.4538 13.6332C95.8334 14.0652 96.0429 14.7197 96.0953 15.5707H91.4216C91.5132 14.7328 91.762 14.0914 92.1809 13.6462Z" fill="white"/>
<path d="M78.3039 41.9108H77.6231V29.6048C77.6231 29.0419 77.4791 28.6098 77.178 28.2956C76.8769 27.9945 76.4449 27.8374 75.882 27.8374H67.1499C66.587 27.8374 66.155 27.9945 65.8539 28.2956C65.5528 28.5967 65.4088 29.0419 65.4088 29.6048V31.3198C65.4088 33.4799 65.304 35.4305 65.0815 37.1586C64.8589 38.8867 64.44 40.4707 63.8116 41.9108H63.1308C62.5679 41.9108 62.1359 42.0679 61.8217 42.369C61.5206 42.6701 61.3635 43.1152 61.3635 43.6782V47.2129C61.3635 47.7889 61.5206 48.2471 61.8348 48.5875C62.149 48.9279 62.5679 49.098 63.1047 49.098C63.6414 49.098 64.0603 48.9279 64.3745 48.5744C64.6887 48.2209 64.8458 47.7758 64.8458 47.2129V44.8957H76.5758V47.2129C76.5758 47.7889 76.7329 48.2471 77.0471 48.5875C77.3613 48.9279 77.7802 49.098 78.317 49.098C78.8276 49.098 79.2465 48.9279 79.5607 48.5744C79.8749 48.2209 80.032 47.7758 80.032 47.2129V43.6782C80.032 43.1152 79.888 42.6832 79.5869 42.369C79.2989 42.0679 78.8668 41.9108 78.3039 41.9108ZM66.9797 41.937C67.595 40.5231 68.0271 38.9652 68.2889 37.2633C68.5507 35.5614 68.6816 33.5453 68.6816 31.1627V30.7568H73.9313V41.937H66.9797Z" fill="white"/>
<path d="M89.8637 33.4668C88.908 32.9693 87.8083 32.7206 86.5516 32.7206C85.2948 32.7206 84.1951 32.9693 83.2394 33.4668C82.2837 33.9643 81.5506 34.6843 81.04 35.6007C80.5295 36.5302 80.2676 37.6168 80.2676 38.8736C80.2676 40.1304 80.5295 41.217 81.04 42.1465C81.5506 43.076 82.2837 43.796 83.2394 44.2935C84.1951 44.804 85.2948 45.0528 86.5516 45.0528C87.8083 45.0528 88.908 44.804 89.8637 44.2935C90.8194 43.7829 91.5525 43.0629 92.0631 42.1465C92.5736 41.217 92.8355 40.1304 92.8355 38.8736C92.8355 37.6168 92.5736 36.5302 92.0631 35.6007C91.5394 34.6843 90.8063 33.9643 89.8637 33.4668ZM86.5385 42.3036C84.7711 42.3036 83.8809 41.1646 83.8809 38.8867C83.8809 36.6088 84.7711 35.4829 86.5385 35.4829C87.3894 35.4829 88.0571 35.7709 88.5153 36.3338C88.9735 36.8968 89.2091 37.7477 89.2091 38.8998C89.2091 41.1646 88.3189 42.3036 86.5385 42.3036Z" fill="white"/>
<path d="M104.173 40.9944C103.715 40.1696 103.335 39.5936 102.994 39.2532C102.654 38.9129 102.209 38.6118 101.633 38.3368L103.976 35.4567C104.277 35.0509 104.435 34.6581 104.435 34.2654C104.435 33.8464 104.291 33.493 104.003 33.2181C103.715 32.9431 103.361 32.7991 102.968 32.7991C102.432 32.7991 101.973 33.0479 101.594 33.5453L98.4517 37.5644H97.7317V34.4879C97.7317 33.9512 97.5615 33.5322 97.2342 33.2311C96.9069 32.93 96.4618 32.7729 95.8858 32.7729C95.3229 32.7729 94.8778 32.93 94.5505 33.2311C94.2232 33.5322 94.0661 33.9512 94.0661 34.4879V43.3116C94.0661 43.8484 94.2232 44.2673 94.5505 44.5684C94.8778 44.8695 95.3098 45.0266 95.8858 45.0266C96.4487 45.0266 96.8938 44.8695 97.2342 44.5684C97.5615 44.2673 97.7317 43.8484 97.7317 43.3116V40.222H98.4517C99.0147 40.222 99.4336 40.3267 99.7216 40.5362C100.01 40.7457 100.285 41.0991 100.586 41.5966L101.934 44.084C102.117 44.3851 102.327 44.6208 102.602 44.7909C102.864 44.948 103.152 45.0266 103.44 45.0266C103.911 45.0266 104.317 44.8564 104.683 44.5291C105.05 44.2018 105.233 43.796 105.233 43.3378C105.233 43.0498 105.155 42.7487 104.997 42.4476L104.173 40.9944Z" fill="white"/>
<path d="M116.217 33.3882C115.955 33.1395 115.615 33.0086 115.183 33.0086H106.791C106.359 33.0086 106.006 33.1395 105.757 33.3882C105.495 33.637 105.377 33.9774 105.377 34.3963C105.377 34.8021 105.508 35.1294 105.757 35.3782C106.019 35.6269 106.359 35.7578 106.791 35.7578H109.161V43.3247C109.161 43.8614 109.318 44.2804 109.645 44.5815C109.972 44.8826 110.404 45.0397 110.98 45.0397C111.543 45.0397 111.988 44.8826 112.329 44.5815C112.656 44.2804 112.826 43.8614 112.826 43.3247V35.7578H115.196C115.628 35.7578 115.981 35.6269 116.23 35.3782C116.492 35.1294 116.623 34.8021 116.623 34.3963C116.61 33.9643 116.479 33.637 116.217 33.3882Z" fill="white"/>
<path d="M125.944 33.4668C124.988 32.9693 123.889 32.7206 122.632 32.7206C121.375 32.7206 120.275 32.9693 119.32 33.4668C118.364 33.9643 117.631 34.6843 117.12 35.6007C116.61 36.5302 116.348 37.6168 116.348 38.8736C116.348 40.1304 116.61 41.217 117.12 42.1465C117.631 43.076 118.364 43.796 119.32 44.2935C120.275 44.804 121.375 45.0528 122.632 45.0528C123.889 45.0528 124.988 44.804 125.944 44.2935C126.9 43.7829 127.633 43.0629 128.143 42.1465C128.654 41.217 128.916 40.1304 128.916 38.8736C128.916 37.6168 128.654 36.5302 128.143 35.6007C127.633 34.6843 126.886 33.9643 125.944 33.4668ZM122.632 42.3036C120.864 42.3036 119.974 41.1646 119.974 38.8867C119.974 36.6088 120.864 35.4829 122.632 35.4829C123.483 35.4829 124.15 35.7709 124.609 36.3338C125.067 36.8968 125.302 37.7477 125.302 38.8998C125.289 41.1646 124.399 42.3036 122.632 42.3036Z" fill="white"/>
<path d="M140.004 33.5061C139.206 32.9824 138.302 32.7206 137.281 32.7206C136.456 32.7206 135.723 32.8908 135.056 33.2442C134.388 33.5977 133.89 34.069 133.537 34.6843V34.4879C133.537 33.9774 133.38 33.5584 133.053 33.2442C132.725 32.93 132.293 32.7729 131.743 32.7729C131.194 32.7729 130.762 32.93 130.421 33.2442C130.094 33.5584 129.924 33.9774 129.924 34.4879V47.6973C129.924 48.1947 130.094 48.6006 130.447 48.9017C130.788 49.2028 131.246 49.3599 131.809 49.3599C132.346 49.3599 132.765 49.2159 133.092 48.9279C133.419 48.6399 133.576 48.2471 133.576 47.7627V43.1938C133.93 43.796 134.44 44.2542 135.082 44.5815C135.736 44.9088 136.469 45.079 137.268 45.079C138.302 45.079 139.206 44.8302 140.004 44.3327C140.803 43.8353 141.405 43.1152 141.85 42.1857C142.295 41.2562 142.518 40.1827 142.518 38.9521C142.518 37.7215 142.295 36.648 141.85 35.7054C141.418 34.7628 140.803 34.0297 140.004 33.5061ZM138.198 41.4395C137.726 42.0155 137.072 42.3036 136.221 42.3036C135.37 42.3036 134.702 42.0155 134.244 41.4264C133.773 40.8373 133.537 39.9995 133.537 38.926C133.537 37.8263 133.773 36.9884 134.244 36.3993C134.715 35.8102 135.37 35.5222 136.221 35.5222C137.072 35.5222 137.739 35.8233 138.198 36.4255C138.656 37.0277 138.905 37.8786 138.905 38.9783C138.905 40.0387 138.669 40.8635 138.198 41.4395Z" fill="white"/>
<path d="M152.768 33.9905C151.931 33.1395 150.634 32.7206 148.893 32.7206C148.108 32.7206 147.296 32.8122 146.484 32.9824C145.673 33.1657 144.979 33.4013 144.416 33.7024C144.089 33.8857 143.866 34.069 143.709 34.2785C143.565 34.4879 143.487 34.7498 143.487 35.077C143.487 35.4829 143.591 35.8102 143.801 36.0589C144.01 36.3076 144.298 36.4386 144.652 36.4386C144.913 36.4386 145.228 36.3469 145.594 36.1767C146.903 35.6923 147.898 35.4567 148.592 35.4567C149.286 35.4567 149.784 35.6138 150.085 35.9149C150.386 36.216 150.53 36.7135 150.53 37.3942V37.8263H149.901C148.186 37.8263 146.851 37.9441 145.869 38.1666C144.887 38.3892 144.167 38.7558 143.735 39.2532C143.303 39.7507 143.068 40.4446 143.068 41.3086C143.068 42.0155 143.251 42.657 143.631 43.2461C144.01 43.8353 144.521 44.2804 145.175 44.6077C145.83 44.9349 146.563 45.092 147.362 45.092C148.121 45.092 148.775 44.9219 149.338 44.5815C149.901 44.2411 150.307 43.7698 150.543 43.1807V43.3509C150.543 43.8484 150.7 44.2542 151.014 44.5684C151.328 44.8826 151.747 45.0397 152.258 45.0397C152.808 45.0397 153.24 44.8957 153.541 44.5946C153.842 44.2935 153.999 43.8876 153.999 43.3509V37.8917C154.025 36.1244 153.606 34.8414 152.768 33.9905ZM150.543 39.9995C150.543 40.7588 150.32 41.3741 149.888 41.8454C149.456 42.3167 148.88 42.5523 148.173 42.5523C147.728 42.5523 147.349 42.4083 147.047 42.1334C146.746 41.8454 146.602 41.4788 146.602 41.0337C146.602 40.4838 146.864 40.1042 147.388 39.8947C147.911 39.6853 148.828 39.5805 150.137 39.5805H150.543V39.9995Z" fill="white"/>
<path d="M49.1886 21.8677C48.0235 12.756 10.1497 -5.59828 3.53851 2.95048C-3.0727 11.4992 -0.100931 44.0447 9.79625 51.7033C19.6934 59.3618 50.3668 30.9794 49.1886 21.8677ZM15.203 47.6187C6.31391 42.6963 -0.0878401 16.9191 4.1669 9.2344C8.42164 1.54969 41.1111 11.6171 43.1796 18.7912C45.235 25.9654 24.1053 52.5411 15.203 47.6187Z" fill="white"/>
<path d="M28.6218 23.6743C28.3207 23.478 26.2391 23.3601 23.7387 23.3209C23.6863 20.8204 23.5685 18.7388 23.3721 18.4377C22.8615 17.6522 19.7589 17.6522 19.2483 18.4377C19.0519 18.7388 18.9341 20.8204 18.8948 23.3209C16.3943 23.3732 14.3128 23.491 14.0248 23.6743C13.2524 24.1718 13.2131 27.2745 14.0248 27.7982C14.339 27.9945 16.4074 28.1254 18.8948 28.1647C18.9472 30.6652 19.065 32.7467 19.2483 33.0348C19.7458 33.8072 22.8484 33.8464 23.3721 33.0348C23.5685 32.7206 23.6994 30.6521 23.7387 28.1647C26.2391 28.1123 28.3207 27.9945 28.6218 27.7982C29.4073 27.3007 29.4073 24.1849 28.6218 23.6743Z" fill="white"/>
</svg>
