<svg width="14" height="16" viewBox="0 0 14 16" fill="none" xmlns="http://www.w3.org/2000/svg">
<path d="M12.4444 1.50769H11.6667V0H10.1111V1.50769H3.88889V0H2.33333V1.50769H1.55556C0.7 1.50769 0 2.18615 0 3.01538V13.5692C0 14.3985 0.7 15.0769 1.55556 15.0769H12.4444C13.3 15.0769 14 14.3985 14 13.5692V3.01538C14 2.18615 13.3 1.50769 12.4444 1.50769ZM12.4444 13.5692H1.55556V6.03077H12.4444V13.5692ZM1.55556 4.52308V3.01538H12.4444V4.52308H1.55556ZM3.11111 7.53846H10.8889V9.04615H3.11111V7.53846ZM3.11111 10.5538H8.55556V12.0615H3.11111V10.5538Z" fill="#8B9BAB"/>
</svg>
