<svg width="15" height="15" viewBox="0 0 15 15" fill="none" xmlns="http://www.w3.org/2000/svg">
<path d="M7.5 0C3.36 0 0 3.36 0 7.5C0 11.64 3.36 15 7.5 15C11.64 15 15 11.64 15 7.5C15 3.36 11.64 0 7.5 0ZM3.8025 12.21C4.125 11.535 6.09 10.875 7.5 10.875C8.91 10.875 10.8825 11.535 11.1975 12.21C10.1775 13.02 8.895 13.5 7.5 13.5C6.105 13.5 4.8225 13.02 3.8025 12.21ZM12.27 11.1225C11.1975 9.8175 8.595 9.375 7.5 9.375C6.405 9.375 3.8025 9.8175 2.73 11.1225C1.965 10.1175 1.5 8.865 1.5 7.5C1.5 4.1925 4.1925 1.5 7.5 1.5C10.8075 1.5 13.5 4.1925 13.5 7.5C13.5 8.865 13.035 10.1175 12.27 11.1225ZM7.5 3C6.045 3 4.875 4.17 4.875 5.625C4.875 7.08 6.045 8.25 7.5 8.25C8.955 8.25 10.125 7.08 10.125 5.625C10.125 4.17 8.955 3 7.5 3ZM7.5 6.75C6.8775 6.75 6.375 6.2475 6.375 5.625C6.375 5.0025 6.8775 4.5 7.5 4.5C8.1225 4.5 8.625 5.0025 8.625 5.625C8.625 6.2475 8.1225 6.75 7.5 6.75Z" fill="current"/>
</svg>
