<svg width="21" height="20" viewBox="0 0 21 20" fill="none" xmlns="http://www.w3.org/2000/svg">
<g clip-path="url(#clip0_145_866)">
<path d="M10.3119 14.4834L14.9843 16.9417L14.0934 11.7393L17.875 8.05551L12.65 7.29619L10.3119 2.55987V0C10.7404 0 11.1689 0.22178 11.3907 0.669099L13.8453 5.646L19.3372 6.4429C20.3221 6.58574 20.7168 7.79989 20.0025 8.49531L16.0293 12.3671L16.969 17.8364C17.1382 18.8175 16.1045 19.5655 15.2249 19.1032L10.3119 16.5245V14.4834Z" fill="#F6AE2D"/>
</g>
<g clip-path="url(#clip1_145_866)">
<path d="M10.3756 14.4834L5.7032 16.9417L6.59408 11.7393L2.81254 8.05551L8.03753 7.29619L10.3756 2.55987V0C9.94709 0 9.51857 0.22178 9.29679 0.669099L6.84217 5.646L1.35029 6.4429C0.365438 6.58574 -0.0292553 7.79989 0.684952 8.49531L4.6582 12.3671L3.71845 17.8364C3.5493 18.8175 4.58302 19.5655 5.46262 19.1032L10.3756 16.5245V14.4834Z" fill="#F6AE2D"/>
</g>
<defs>
<clipPath id="clip0_145_866">
<rect width="10.056" height="19.246" fill="white" transform="translate(10.3438)"/>
</clipPath>
<clipPath id="clip1_145_866">
<rect width="10.056" height="19.246" fill="white" transform="translate(0.320312)"/>
</clipPath>
</defs>
</svg>
