<svg width="15" height="15" viewBox="0 0 15 15" fill="none" xmlns="http://www.w3.org/2000/svg">
<path d="M1 7.5L2.44444 6.05556M2.44444 6.05556L7.5 1L12.5556 6.05556M2.44444 6.05556V13.2778C2.44444 13.6766 2.76779 14 3.16667 14H5.33333M12.5556 6.05556L14 7.5M12.5556 6.05556V13.2778C12.5556 13.6766 12.2322 14 11.8333 14H9.66667M5.33333 14C5.73221 14 6.05556 13.6766 6.05556 13.2778V10.3889C6.05556 9.99002 6.37891 9.66667 6.77778 9.66667H8.22222C8.62109 9.66667 8.94444 9.99002 8.94444 10.3889V13.2778C8.94444 13.6766 9.26779 14 9.66667 14M5.33333 14H9.66667" stroke="current" stroke-width="1.5" stroke-linecap="round" stroke-linejoin="round"/>
</svg>
